<svg xmlns="http://www.w3.org/2000/svg" width="253" height="60" viewBox="0 0 253 60" fill="none"><path d="M19.17 55.4142L19.102 55.4542H4.195V24.2592L26.037 5.57023L47.879 24.2592V55.4542H32.973L32.905 55.4142C32.458 55.1522 31.902 54.8442 31.253 54.4852C30.861 54.2682 30.438 54.0342 29.989 53.7822L29.581 53.5542L29.967 53.2902C37.535 48.1262 41.214 43.0502 41.214 37.7732C41.214 32.7802 37.151 28.7172 32.157 28.7172C29.969 28.7172 27.863 29.5032 26.228 30.9312L26.037 31.0972L25.847 30.9312C24.211 29.5042 22.105 28.7172 19.917 28.7172C14.924 28.7172 10.861 32.7802 10.861 37.7732C10.861 43.0502 14.54 48.1262 22.107 53.2902L22.494 53.5542L22.085 53.7822C21.636 54.0342 21.214 54.2682 20.823 54.4852C20.173 54.8442 19.616 55.1522 19.17 55.4142ZM26.193 51.3512L26.037 51.4492L25.882 51.3512C18.367 46.5862 14.556 42.0172 14.556 37.7732C14.556 34.8172 16.961 32.4122 19.917 32.4122C23.422 32.4122 25.364 35.5912 26.037 36.9572C26.71 35.5912 28.653 32.4122 32.157 32.4122C35.114 32.4122 37.519 34.8172 37.519 37.7732C37.519 42.0172 33.708 46.5852 26.193 51.3512ZM22.612 57.7182C23.522 57.2142 24.655 56.5872 25.891 55.8612L26.037 55.7742L26.184 55.8612C27.434 56.5952 28.559 57.2172 29.464 57.7182C30.328 58.1962 31.064 58.6042 31.44 58.8492L31.899 59.1492H51.575V22.5572L26.037 0.70623L0.5 22.5572V59.1492H20.175L20.635 58.8492C21.017 58.6002 21.756 58.1912 22.612 57.7182Z" fill="#397CC2"></path><path d="M62.6191 50.8497H64.2791V59.1497H62.6191V50.8497Z" fill="#397CC2"></path><path d="M66.432 50.8494H68.116L71.893 56.3104V50.8494H73.554V59.1494H71.869L68.092 53.6884V59.1494H66.432V50.8494Z" fill="#397CC2"></path><path d="M75.5602 54.2298H79.0732V55.7457H75.5602V54.2298Z" fill="#397CC2"></path><path d="M81.0807 50.8494H82.7407V54.1934H86.4217V50.8494H88.0817V59.1494H86.4217V55.7574H82.7407V59.1494H81.0807V50.8494Z" fill="#397CC2"></path><path d="M96.8732 54.9994C96.8732 53.4594 95.7182 52.3044 94.2022 52.3044C92.6752 52.3044 91.5202 53.4594 91.5202 54.9994C91.5202 56.5394 92.6752 57.6944 94.2022 57.6944C95.7182 57.6944 96.8732 56.5394 96.8732 54.9994ZM89.8242 54.9994C89.8242 52.5574 91.7002 50.7044 94.2022 50.7044C96.6932 50.7044 98.5812 52.5574 98.5812 54.9994C98.5812 57.4414 96.6932 59.2934 94.2022 59.2934C91.7002 59.2934 89.8242 57.4414 89.8242 54.9994Z" fill="#397CC2"></path><path d="M100.312 50.8494H102.381L104.895 55.3244L107.422 50.8494H109.467V59.1494H107.807V53.2914L105.364 57.6584H104.414L101.972 53.2914V59.1494H100.312V50.8494Z" fill="#397CC2"></path><path d="M111.617 50.8494H117.079V52.4134H113.277V54.1934H116.681V55.7574H113.277V57.5854H117.138V59.1494H111.617V50.8494Z" fill="#397CC2"></path><path d="M121.683 54.9994C121.683 52.5574 123.56 50.7044 126.062 50.7044C128.167 50.7044 129.851 52.0524 130.236 53.9404H128.48C128.143 52.9664 127.193 52.3044 126.062 52.3044C124.534 52.3044 123.379 53.4594 123.379 54.9994C123.379 56.5394 124.534 57.6944 126.062 57.6944C127.193 57.6944 128.143 57.0324 128.48 56.0584H130.236C129.851 57.9464 128.167 59.2934 126.062 59.2934C123.56 59.2934 121.683 57.4414 121.683 54.9994Z" fill="#397CC2"></path><path d="M136.044 56.0097L134.829 52.6777L133.602 56.0097H136.044ZM133.866 50.8497H135.828L139.015 59.1497H137.199L136.609 57.5377H133.037L132.459 59.1497H130.667L133.866 50.8497Z" fill="#397CC2"></path><path d="M141.997 52.4131V54.7471H143.994C144.643 54.7471 145.137 54.2411 145.137 53.5801C145.137 52.9181 144.643 52.4131 143.994 52.4131H141.997ZM140.337 50.8491H144.03C145.63 50.8491 146.845 52.0161 146.845 53.5681C146.845 54.7591 146.099 55.7091 145.004 56.0461L147.086 59.1491H145.028L143.128 56.1901H141.997V59.1491H140.337V50.8491Z" fill="#397CC2"></path><path d="M148.563 50.8494H154.024V52.4134H150.223V54.1934H153.627V55.7574H150.223V57.5854H154.084V59.1494H148.563V50.8494Z" fill="#397CC2"></path><path d="M62.6173 22.5046H74.9253V25.6816H65.9923V30.8426H73.7633V34.0186H65.9923V42.0726H62.6173V22.5046Z" fill="#14275A"></path><path d="M86.9523 35.7195C86.5173 35.5495 86.0023 35.4075 85.4063 35.2945C84.8113 35.1805 84.1823 35.1235 83.5203 35.1235C82.4423 35.1235 81.6013 35.3325 80.9963 35.7475C80.3913 36.1645 80.0883 36.7595 80.0883 37.5345V37.5915C80.0883 38.3105 80.3673 38.8585 80.9253 39.2365C81.4833 39.6145 82.1683 39.8035 82.9813 39.8035C83.5483 39.8035 84.0733 39.7285 84.5553 39.5765C85.0383 39.4255 85.4583 39.2125 85.8173 38.9385C86.1763 38.6645 86.4563 38.3335 86.6543 37.9465C86.8533 37.5585 86.9523 37.1285 86.9523 36.6555V35.7195ZM86.8673 42.0725V40.2295C86.3573 40.8345 85.7043 41.3445 84.9103 41.7605C84.1163 42.1765 83.1523 42.3845 82.0173 42.3845C81.2983 42.3845 80.6183 42.2855 79.9753 42.0865C79.3323 41.8885 78.7703 41.5955 78.2873 41.2075C77.8053 40.8205 77.4173 40.3385 77.1253 39.7615C76.8313 39.1845 76.6853 38.5175 76.6853 37.7615V37.7045C76.6853 36.8915 76.8363 36.1835 77.1393 35.5775C77.4413 34.9725 77.8623 34.4715 78.4013 34.0745C78.9403 33.6775 79.5823 33.3795 80.3293 33.1815C81.0763 32.9825 81.8843 32.8835 82.7543 32.8835C83.6623 32.8835 84.4323 32.9395 85.0663 33.0535C85.6993 33.1665 86.3093 33.3185 86.8953 33.5075V33.1385C86.8953 32.0985 86.5783 31.3045 85.9453 30.7565C85.3113 30.2075 84.3993 29.9335 83.2083 29.9335C82.3573 29.9335 81.6013 30.0185 80.9393 30.1885C80.2773 30.3595 79.6063 30.5865 78.9253 30.8695L77.9903 28.1185C78.8213 27.7405 79.6723 27.4375 80.5423 27.2105C81.4113 26.9835 82.4613 26.8705 83.6903 26.8705C85.9213 26.8705 87.5763 27.4235 88.6543 28.5295C89.7323 29.6355 90.2703 31.1915 90.2703 33.1955V42.0725H86.8673Z" fill="#14275A"></path><path d="M93.1912 27.6092H96.3682V29.2822C97.4452 27.9782 98.9762 27.2692 100.848 27.2692C103.032 27.2692 104.705 28.2612 105.556 29.9062C106.662 28.2052 108.42 27.2692 110.661 27.2692C113.866 27.2692 115.992 29.4242 115.992 32.6852V42.0722H112.816V33.6212C112.816 31.6362 111.568 30.3322 109.612 30.3322C107.57 30.3322 106.18 31.6642 106.18 33.6782V42.0722H103.004V33.6212C103.004 31.6362 101.756 30.3322 99.7992 30.3322C97.7572 30.3322 96.3682 31.6642 96.3682 33.6782V42.0722H93.1912V27.6092Z" fill="#14275A"></path><path d="M119.397 27.6087H122.573V42.0717H119.397V27.6087ZM118.972 23.2708C118.972 22.1078 119.851 21.2567 120.986 21.2567C122.148 21.2567 123.028 22.1078 123.028 23.2708C123.028 24.4048 122.148 25.2838 120.986 25.2838C119.851 25.2838 118.972 24.4048 118.972 23.2708Z" fill="#14275A"></path><path d="M126.176 21.6538H129.352V42.0728H126.176V21.6538Z" fill="#14275A"></path><path d="M137.379 41.959L131.282 27.609H134.912L139.137 38.159L143.335 27.609H146.88L138.457 47.461H135.025L137.379 41.959Z" fill="#14275A"></path><path d="M152.581 22.5046H156.778L163.216 33.5926L169.654 22.5046H173.822V42.0726H170.448V27.4106L164.152 38.3006H162.223L155.956 27.4106V42.0726H152.581V22.5046Z" fill="#14275A"></path><path d="M187.07 35.7195C186.635 35.5495 186.12 35.4075 185.524 35.2945C184.929 35.1805 184.3 35.1235 183.638 35.1235C182.56 35.1235 181.719 35.3325 181.114 35.7475C180.509 36.1645 180.206 36.7595 180.206 37.5345V37.5915C180.206 38.3105 180.485 38.8585 181.043 39.2365C181.601 39.6145 182.286 39.8035 183.099 39.8035C183.666 39.8035 184.191 39.7285 184.673 39.5765C185.156 39.4255 185.576 39.2125 185.935 38.9385C186.294 38.6645 186.574 38.3335 186.772 37.9465C186.971 37.5585 187.07 37.1285 187.07 36.6555V35.7195ZM186.985 42.0725V40.2295C186.475 40.8345 185.822 41.3445 185.028 41.7605C184.234 42.1765 183.27 42.3845 182.135 42.3845C181.416 42.3845 180.736 42.2855 180.093 42.0865C179.45 41.8885 178.888 41.5955 178.405 41.2075C177.923 40.8205 177.535 40.3385 177.243 39.7615C176.949 39.1845 176.803 38.5175 176.803 37.7615V37.7045C176.803 36.8915 176.954 36.1835 177.257 35.5775C177.559 34.9725 177.98 34.4715 178.519 34.0745C179.058 33.6775 179.7 33.3795 180.447 33.1815C181.194 32.9825 182.002 32.8835 182.872 32.8835C183.78 32.8835 184.55 32.9395 185.184 33.0535C185.817 33.1665 186.427 33.3185 187.013 33.5075V33.1385C187.013 32.0985 186.696 31.3045 186.063 30.7565C185.429 30.2075 184.517 29.9335 183.326 29.9335C182.475 29.9335 181.719 30.0185 181.057 30.1885C180.395 30.3595 179.724 30.5865 179.043 30.8695L178.108 28.1185C178.939 27.7405 179.79 27.4375 180.66 27.2105C181.529 26.9835 182.579 26.8705 183.808 26.8705C186.039 26.8705 187.694 27.4235 188.772 28.5295C189.85 29.6355 190.388 31.1915 190.388 33.1955V42.0725H186.985Z" fill="#14275A"></path><path d="M194.443 37.6202V30.5022H192.004V27.6092H193.479C194.216 27.6092 194.613 27.2122 194.613 26.4752V23.6962H197.619V27.6092H201.193V30.5022H197.619V37.1092C197.619 38.3862 198.413 39.1512 199.746 39.1512H201.193V42.0722H199.292C196.145 42.0722 194.443 40.4842 194.443 37.6202Z" fill="#14275A"></path><path d="M205.249 37.6202V30.5022H202.81V27.6092H204.285C205.022 27.6092 205.419 27.2122 205.419 26.4752V23.6962H208.425V27.6092H211.999V30.5022H208.425V37.1092C208.425 38.3862 209.219 39.1512 210.552 39.1512H211.999V42.0722H210.099C206.951 42.0722 205.249 40.4842 205.249 37.6202Z" fill="#14275A"></path><path d="M217.048 33.4514H225.669C225.187 31.4664 223.485 30.1334 221.33 30.1334C219.231 30.1334 217.558 31.4384 217.048 33.4514ZM213.616 34.8414C213.616 30.5304 216.935 27.2694 221.33 27.2694C225.754 27.2694 229.072 30.5304 229.072 34.8694C229.072 35.2664 229.044 35.6914 228.987 36.0604H217.02C217.501 38.1594 219.203 39.5484 221.472 39.5484C223.145 39.5484 224.592 38.8114 225.329 37.7054H228.845C227.683 40.5124 224.847 42.4124 221.415 42.4124C216.935 42.4124 213.616 39.1514 213.616 34.8414Z" fill="#14275A"></path><path d="M231.569 27.6092H234.746V30.0202C235.88 28.3752 237.553 27.3822 239.595 27.3822H240.106V30.6442H239.595C236.532 30.6442 234.746 32.3742 234.746 35.0392V42.0722H231.569V27.6092Z" fill="#14275A"></path><path d="M241.099 37.8186H244.332C244.332 38.9246 245.381 39.6616 246.913 39.6616C248.331 39.6616 249.266 39.0096 249.266 38.1026C249.266 35.4936 241.326 36.9396 241.326 31.8066C241.326 28.9986 243.566 27.2696 246.771 27.2696C250.061 27.2696 252.273 29.0556 252.273 31.6646H249.04C249.04 30.6726 248.104 29.9916 246.743 29.9916C245.41 29.9916 244.531 30.5876 244.531 31.4656C244.531 33.9906 252.5 32.6006 252.5 37.7616C252.5 40.5696 250.259 42.4126 246.884 42.4126C243.396 42.4126 241.099 40.5406 241.099 37.8186Z" fill="#14275A"></path></svg>